<svg class="main-svg" xmlns="http://www.w3.org/2000/svg" xmlns:xlink="http://www.w3.org/1999/xlink" width="1000" height="1000" style="" viewBox="0 0 1000 1000"><rect x="0" y="0" width="1000" height="1000" style="fill: rgb(255, 255, 255); fill-opacity: 1;"/><defs id="defs-f93165"><g class="clips"><clipPath id="clipf93165xyplot" class="plotclip"><rect width="768" height="671"/></clipPath><clipPath class="axesclip" id="clipf93165x"><rect x="132" y="0" width="768" height="1000"/></clipPath><clipPath class="axesclip" id="clipf93165y"><rect x="0" y="199" width="1000" height="671"/></clipPath><clipPath class="axesclip" id="clipf93165xy"><rect x="132" y="199" width="768" height="671"/></clipPath></g><g class="gradients"/><g class="patterns"/></defs><g class="bglayer"/><g class="layer-below"><g class="imagelayer"/><g class="shapelayer"><g class="shape-group" data-index="0" clip-path="url(#clipf93165x)"><path data-index="0" fill-rule="evenodd" d="M266.15999999999997,870L266.15999999999997,199" style="opacity: 1; stroke: rgb(31, 41, 55); stroke-opacity: 1; fill: rgb(0, 0, 0); fill-opacity: 0; stroke-dasharray: 15px, 10px; stroke-width: 2.5px;"/></g></g></g><g class="cartesianlayer"><g class="subplot xy"><g class="layer-subplot"><g class="shapelayer"/><g class="imagelayer"/></g><g class="minor-gridlayer"><g class="x"/><g class="y"/></g><g class="gridlayer"><g class="x"><path class="xgrid crisp" transform="translate(285.6,0)" d="M0,199v671" style="stroke: rgb(229, 231, 235); stroke-opacity: 1; stroke-width: 1px;"/><path class="xgrid crisp" transform="translate(439.2,0)" d="M0,199v671" style="stroke: rgb(229, 231, 235); stroke-opacity: 1; stroke-width: 1px;"/><path class="xgrid crisp" transform="translate(592.8,0)" d="M0,199v671" style="stroke: rgb(229, 231, 235); stroke-opacity: 1; stroke-width: 1px;"/><path class="xgrid crisp" transform="translate(746.4,0)" d="M0,199v671" style="stroke: rgb(229, 231, 235); stroke-opacity: 1; stroke-width: 1px;"/></g><g class="y"><path class="ygrid crisp" transform="translate(0,742.19)" d="M132,0h768" style="stroke: rgb(229, 231, 235); stroke-opacity: 1; stroke-width: 1px;"/><path class="ygrid crisp" transform="translate(0,614.38)" d="M132,0h768" style="stroke: rgb(229, 231, 235); stroke-opacity: 1; stroke-width: 1px;"/><path class="ygrid crisp" transform="translate(0,486.57)" d="M132,0h768" style="stroke: rgb(229, 231, 235); stroke-opacity: 1; stroke-width: 1px;"/><path class="ygrid crisp" transform="translate(0,358.76)" d="M132,0h768" style="stroke: rgb(229, 231, 235); stroke-opacity: 1; stroke-width: 1px;"/><path class="ygrid crisp" transform="translate(0,230.95)" d="M132,0h768" style="stroke: rgb(229, 231, 235); stroke-opacity: 1; stroke-width: 1px;"/></g></g><g class="zerolinelayer"/><g class="layer-between"><g class="shapelayer"/><g class="imagelayer"/></g><path class="xlines-below"/><path class="ylines-below"/><g class="overlines-below"/><g class="xaxislayer-below"/><g class="yaxislayer-below"/><g class="overaxes-below"/><g class="overplot"><g class="xy" transform="translate(132,199)" clip-path="url(#clipf93165xyplot)"><g class="scatterlayer mlayer"><g class="trace scatter trace4f42f2" style="stroke-miterlimit: 2; opacity: 1;"><g class="fills"><g><path class="js-fill" d="M30.75,83.5L61.46,115.88L92.18,254.24L122.86,342.8L153.66,392.87L184.08,422.02L214.33,449.87L246.32,467.47L276.57,485.48L307.79,494.7L340.26,507.04L368.21,514.19L368.21,516.99L340.26,509.97L307.79,499.47L276.57,486.94L246.32,473.9L214.33,455.51L184.08,428.21L153.66,398.78L122.86,350.17L92.18,267.82L61.46,124.81L30.75,93.32Z" style="fill: rgb(0, 12, 122); fill-opacity: 0.15; stroke-width: 0;"/></g></g><g class="errorbars"/><g class="lines"/><g class="points"/><g class="text"/></g><g class="trace scatter tracef9834d" style="stroke-miterlimit: 2; opacity: 1;"><g class="fills"/><g class="errorbars"/><g class="lines"><path class="js-line" d="M30.75,88.41L61.46,120.35L92.18,261.03L122.86,346.48L153.66,395.82L184.08,425.12L214.33,452.69L246.32,470.69L276.57,486.21L340.26,508.51L368.21,515.59" style="vector-effect: none; fill: none; stroke: rgb(0, 12, 122); stroke-opacity: 1; stroke-width: 2.5px; opacity: 1;"/></g><g class="points"><path class="point" transform="translate(30.75,88.41)" d="M5,0A5,5 0 1,1 0,-5A5,5 0 0,1 5,0Z" style="opacity: 1; stroke-width: 1px; fill: rgb(0, 12, 122); fill-opacity: 1; stroke: rgb(255, 255, 255); stroke-opacity: 1;"/><path class="point" transform="translate(61.46,120.35)" d="M5,0A5,5 0 1,1 0,-5A5,5 0 0,1 5,0Z" style="opacity: 1; stroke-width: 1px; fill: rgb(0, 12, 122); fill-opacity: 1; stroke: rgb(255, 255, 255); stroke-opacity: 1;"/><path class="point" transform="translate(92.18,261.03)" d="M5,0A5,5 0 1,1 0,-5A5,5 0 0,1 5,0Z" style="opacity: 1; stroke-width: 1px; fill: rgb(0, 12, 122); fill-opacity: 1; stroke: rgb(255, 255, 255); stroke-opacity: 1;"/><path class="point" transform="translate(122.86,346.48)" d="M5,0A5,5 0 1,1 0,-5A5,5 0 0,1 5,0Z" style="opacity: 1; stroke-width: 1px; fill: rgb(0, 12, 122); fill-opacity: 1; stroke: rgb(255, 255, 255); stroke-opacity: 1;"/><path class="point" transform="translate(153.66,395.82)" d="M5,0A5,5 0 1,1 0,-5A5,5 0 0,1 5,0Z" style="opacity: 1; stroke-width: 1px; fill: rgb(0, 12, 122); fill-opacity: 1; stroke: rgb(255, 255, 255); stroke-opacity: 1;"/><path class="point" transform="translate(184.08,425.12)" d="M5,0A5,5 0 1,1 0,-5A5,5 0 0,1 5,0Z" style="opacity: 1; stroke-width: 1px; fill: rgb(0, 12, 122); fill-opacity: 1; stroke: rgb(255, 255, 255); stroke-opacity: 1;"/><path class="point" transform="translate(214.33,452.69)" d="M5,0A5,5 0 1,1 0,-5A5,5 0 0,1 5,0Z" style="opacity: 1; stroke-width: 1px; fill: rgb(0, 12, 122); fill-opacity: 1; stroke: rgb(255, 255, 255); stroke-opacity: 1;"/><path class="point" transform="translate(246.32,470.69)" d="M5,0A5,5 0 1,1 0,-5A5,5 0 0,1 5,0Z" style="opacity: 1; stroke-width: 1px; fill: rgb(0, 12, 122); fill-opacity: 1; stroke: rgb(255, 255, 255); stroke-opacity: 1;"/><path class="point" transform="translate(276.57,486.21)" d="M5,0A5,5 0 1,1 0,-5A5,5 0 0,1 5,0Z" style="opacity: 1; stroke-width: 1px; fill: rgb(0, 12, 122); fill-opacity: 1; stroke: rgb(255, 255, 255); stroke-opacity: 1;"/><path class="point" transform="translate(307.79,497.08)" d="M5,0A5,5 0 1,1 0,-5A5,5 0 0,1 5,0Z" style="opacity: 1; stroke-width: 1px; fill: rgb(0, 12, 122); fill-opacity: 1; stroke: rgb(255, 255, 255); stroke-opacity: 1;"/><path class="point" transform="translate(340.26,508.51)" d="M5,0A5,5 0 1,1 0,-5A5,5 0 0,1 5,0Z" style="opacity: 1; stroke-width: 1px; fill: rgb(0, 12, 122); fill-opacity: 1; stroke: rgb(255, 255, 255); stroke-opacity: 1;"/><path class="point" transform="translate(368.21,515.59)" d="M5,0A5,5 0 1,1 0,-5A5,5 0 0,1 5,0Z" style="opacity: 1; stroke-width: 1px; fill: rgb(0, 12, 122); fill-opacity: 1; stroke: rgb(255, 255, 255); stroke-opacity: 1;"/></g><g class="text"/></g><g class="trace scatter traceac1b29" style="stroke-miterlimit: 2; opacity: 1;"><g class="fills"><g><path class="js-fill" d="M30.73,159.23L61.46,157.84L92.1,278.67L123.43,347.45L154.26,402.19L184.57,430.55L215.15,458.61L244.86,471.69L277.01,486.32L306.56,497.06L337.57,506.01L368.57,515.1L368.57,518.27L337.57,511.24L306.56,500.05L277.01,491.44L244.86,475.08L215.15,463.87L184.57,440.26L154.26,410.39L123.43,355.63L92.1,290.41L61.46,194.83L30.73,180.43Z" style="fill: rgb(220, 38, 38); fill-opacity: 0.15; stroke-width: 0;"/></g></g><g class="errorbars"/><g class="lines"/><g class="points"/><g class="text"/></g><g class="trace scatter trace939127" style="stroke-miterlimit: 2; opacity: 1;"><g class="fills"/><g class="errorbars"/><g class="lines"><path class="js-line" d="M30.73,169.83L61.46,176.34L92.1,284.54L123.43,351.54L154.26,406.29L184.57,435.4L215.15,461.24L244.86,473.39L277.01,488.88L337.57,508.62L368.57,516.68" style="vector-effect: none; fill: none; stroke: rgb(220, 38, 38); stroke-opacity: 1; stroke-width: 2.5px; opacity: 1;"/></g><g class="points"><path class="point" transform="translate(30.73,169.83)" d="M5,0A5,5 0 1,1 0,-5A5,5 0 0,1 5,0Z" style="opacity: 1; stroke-width: 1px; fill: rgb(220, 38, 38); fill-opacity: 1; stroke: rgb(255, 255, 255); stroke-opacity: 1;"/><path class="point" transform="translate(61.46,176.34)" d="M5,0A5,5 0 1,1 0,-5A5,5 0 0,1 5,0Z" style="opacity: 1; stroke-width: 1px; fill: rgb(220, 38, 38); fill-opacity: 1; stroke: rgb(255, 255, 255); stroke-opacity: 1;"/><path class="point" transform="translate(92.1,284.54)" d="M5,0A5,5 0 1,1 0,-5A5,5 0 0,1 5,0Z" style="opacity: 1; stroke-width: 1px; fill: rgb(220, 38, 38); fill-opacity: 1; stroke: rgb(255, 255, 255); stroke-opacity: 1;"/><path class="point" transform="translate(123.43,351.54)" d="M5,0A5,5 0 1,1 0,-5A5,5 0 0,1 5,0Z" style="opacity: 1; stroke-width: 1px; fill: rgb(220, 38, 38); fill-opacity: 1; stroke: rgb(255, 255, 255); stroke-opacity: 1;"/><path class="point" transform="translate(154.26,406.29)" d="M5,0A5,5 0 1,1 0,-5A5,5 0 0,1 5,0Z" style="opacity: 1; stroke-width: 1px; fill: rgb(220, 38, 38); fill-opacity: 1; stroke: rgb(255, 255, 255); stroke-opacity: 1;"/><path class="point" transform="translate(184.57,435.4)" d="M5,0A5,5 0 1,1 0,-5A5,5 0 0,1 5,0Z" style="opacity: 1; stroke-width: 1px; fill: rgb(220, 38, 38); fill-opacity: 1; stroke: rgb(255, 255, 255); stroke-opacity: 1;"/><path class="point" transform="translate(215.15,461.24)" d="M5,0A5,5 0 1,1 0,-5A5,5 0 0,1 5,0Z" style="opacity: 1; stroke-width: 1px; fill: rgb(220, 38, 38); fill-opacity: 1; stroke: rgb(255, 255, 255); stroke-opacity: 1;"/><path class="point" transform="translate(244.86,473.39)" d="M5,0A5,5 0 1,1 0,-5A5,5 0 0,1 5,0Z" style="opacity: 1; stroke-width: 1px; fill: rgb(220, 38, 38); fill-opacity: 1; stroke: rgb(255, 255, 255); stroke-opacity: 1;"/><path class="point" transform="translate(277.01,488.88)" d="M5,0A5,5 0 1,1 0,-5A5,5 0 0,1 5,0Z" style="opacity: 1; stroke-width: 1px; fill: rgb(220, 38, 38); fill-opacity: 1; stroke: rgb(255, 255, 255); stroke-opacity: 1;"/><path class="point" transform="translate(306.56,498.56)" d="M5,0A5,5 0 1,1 0,-5A5,5 0 0,1 5,0Z" style="opacity: 1; stroke-width: 1px; fill: rgb(220, 38, 38); fill-opacity: 1; stroke: rgb(255, 255, 255); stroke-opacity: 1;"/><path class="point" transform="translate(337.57,508.62)" d="M5,0A5,5 0 1,1 0,-5A5,5 0 0,1 5,0Z" style="opacity: 1; stroke-width: 1px; fill: rgb(220, 38, 38); fill-opacity: 1; stroke: rgb(255, 255, 255); stroke-opacity: 1;"/><path class="point" transform="translate(368.57,516.68)" d="M5,0A5,5 0 1,1 0,-5A5,5 0 0,1 5,0Z" style="opacity: 1; stroke-width: 1px; fill: rgb(220, 38, 38); fill-opacity: 1; stroke: rgb(255, 255, 255); stroke-opacity: 1;"/></g><g class="text"/></g><g class="trace scatter tracefbeda2" style="stroke-miterlimit: 2; opacity: 1;"><g class="fills"><g><path class="js-fill" d="M30.69,218.18L61.53,294.13L92.24,398.02L121.42,449.84L152.3,482.47L184.29,504.18L215.09,524.11L245.74,535.28L277.23,549.36L308.06,555.18L339.48,561.82L367.33,566.73L367.33,571.46L339.48,567.63L308.06,561.24L277.23,552.09L245.74,546.77L215.09,530.94L184.29,514.91L152.3,494.15L121.42,464.31L92.24,414.52L61.53,320.71L30.69,241.86Z" style="fill: rgb(252, 186, 3); fill-opacity: 0.15; stroke-width: 0;"/></g></g><g class="errorbars"/><g class="lines"/><g class="points"/><g class="text"/></g><g class="trace scatter traceae12ff" style="stroke-miterlimit: 2; opacity: 1;"><g class="fills"/><g class="errorbars"/><g class="lines"><path class="js-line" d="M30.69,230.02L61.53,307.42L92.24,406.27L121.42,457.07L152.3,488.31L184.29,509.54L215.09,527.52L245.74,541.02L277.23,550.72L308.06,558.21L339.48,564.72L367.33,569.1" style="vector-effect: none; fill: none; stroke: rgb(252, 186, 3); stroke-opacity: 1; stroke-width: 2.5px; opacity: 1;"/></g><g class="points"><path class="point" transform="translate(30.69,230.02)" d="M5,0A5,5 0 1,1 0,-5A5,5 0 0,1 5,0Z" style="opacity: 1; stroke-width: 1px; fill: rgb(252, 186, 3); fill-opacity: 1; stroke: rgb(255, 255, 255); stroke-opacity: 1;"/><path class="point" transform="translate(61.53,307.42)" d="M5,0A5,5 0 1,1 0,-5A5,5 0 0,1 5,0Z" style="opacity: 1; stroke-width: 1px; fill: rgb(252, 186, 3); fill-opacity: 1; stroke: rgb(255, 255, 255); stroke-opacity: 1;"/><path class="point" transform="translate(92.24,406.27)" d="M5,0A5,5 0 1,1 0,-5A5,5 0 0,1 5,0Z" style="opacity: 1; stroke-width: 1px; fill: rgb(252, 186, 3); fill-opacity: 1; stroke: rgb(255, 255, 255); stroke-opacity: 1;"/><path class="point" transform="translate(121.42,457.07)" d="M5,0A5,5 0 1,1 0,-5A5,5 0 0,1 5,0Z" style="opacity: 1; stroke-width: 1px; fill: rgb(252, 186, 3); fill-opacity: 1; stroke: rgb(255, 255, 255); stroke-opacity: 1;"/><path class="point" transform="translate(152.3,488.31)" d="M5,0A5,5 0 1,1 0,-5A5,5 0 0,1 5,0Z" style="opacity: 1; stroke-width: 1px; fill: rgb(252, 186, 3); fill-opacity: 1; stroke: rgb(255, 255, 255); stroke-opacity: 1;"/><path class="point" transform="translate(184.29,509.54)" d="M5,0A5,5 0 1,1 0,-5A5,5 0 0,1 5,0Z" style="opacity: 1; stroke-width: 1px; fill: rgb(252, 186, 3); fill-opacity: 1; stroke: rgb(255, 255, 255); stroke-opacity: 1;"/><path class="point" transform="translate(215.09,527.52)" d="M5,0A5,5 0 1,1 0,-5A5,5 0 0,1 5,0Z" style="opacity: 1; stroke-width: 1px; fill: rgb(252, 186, 3); fill-opacity: 1; stroke: rgb(255, 255, 255); stroke-opacity: 1;"/><path class="point" transform="translate(245.74,541.02)" d="M5,0A5,5 0 1,1 0,-5A5,5 0 0,1 5,0Z" style="opacity: 1; stroke-width: 1px; fill: rgb(252, 186, 3); fill-opacity: 1; stroke: rgb(255, 255, 255); stroke-opacity: 1;"/><path class="point" transform="translate(277.23,550.72)" d="M5,0A5,5 0 1,1 0,-5A5,5 0 0,1 5,0Z" style="opacity: 1; stroke-width: 1px; fill: rgb(252, 186, 3); fill-opacity: 1; stroke: rgb(255, 255, 255); stroke-opacity: 1;"/><path class="point" transform="translate(308.06,558.21)" d="M5,0A5,5 0 1,1 0,-5A5,5 0 0,1 5,0Z" style="opacity: 1; stroke-width: 1px; fill: rgb(252, 186, 3); fill-opacity: 1; stroke: rgb(255, 255, 255); stroke-opacity: 1;"/><path class="point" transform="translate(339.48,564.72)" d="M5,0A5,5 0 1,1 0,-5A5,5 0 0,1 5,0Z" style="opacity: 1; stroke-width: 1px; fill: rgb(252, 186, 3); fill-opacity: 1; stroke: rgb(255, 255, 255); stroke-opacity: 1;"/><path class="point" transform="translate(367.33,569.1)" d="M5,0A5,5 0 1,1 0,-5A5,5 0 0,1 5,0Z" style="opacity: 1; stroke-width: 1px; fill: rgb(252, 186, 3); fill-opacity: 1; stroke: rgb(255, 255, 255); stroke-opacity: 1;"/></g><g class="text"/></g></g></g></g><g class="zerolinelayer-above"/><path class="xlines-above crisp" d="M129.5,871.25H902.5M129.5,197.75H902.5" style="fill: none; stroke-width: 2.5px; stroke: rgb(0, 0, 0); stroke-opacity: 1;"/><path class="ylines-above crisp" d="M130.75,199V870M901.25,199V870" style="fill: none; stroke-width: 2.5px; stroke: rgb(0, 0, 0); stroke-opacity: 1;"/><g class="overlines-above"/><g class="xaxislayer-above"><path class="xtick ticks crisp" d="M0,872.5v8" transform="translate(132,0)" style="stroke: rgb(0, 0, 0); stroke-opacity: 1; stroke-width: 1.5px;"/><path class="xtick ticks crisp" d="M0,872.5v8" transform="translate(285.6,0)" style="stroke: rgb(0, 0, 0); stroke-opacity: 1; stroke-width: 1.5px;"/><path class="xtick ticks crisp" d="M0,872.5v8" transform="translate(439.2,0)" style="stroke: rgb(0, 0, 0); stroke-opacity: 1; stroke-width: 1.5px;"/><path class="xtick ticks crisp" d="M0,872.5v8" transform="translate(592.8,0)" style="stroke: rgb(0, 0, 0); stroke-opacity: 1; stroke-width: 1.5px;"/><path class="xtick ticks crisp" d="M0,872.5v8" transform="translate(746.4,0)" style="stroke: rgb(0, 0, 0); stroke-opacity: 1; stroke-width: 1.5px;"/><path class="xtick ticks crisp" d="M0,872.5v8" transform="translate(900,0)" style="stroke: rgb(0, 0, 0); stroke-opacity: 1; stroke-width: 1.5px;"/><g class="xtick"><text text-anchor="middle" x="0" y="932.1" transform="translate(132,0)" style="font-family: 'Times New Roman', Times, serif; font-size: 43px; fill: rgb(0, 0, 0); fill-opacity: 1; white-space: pre;">0</text></g><g class="xtick"><text text-anchor="middle" x="0" y="932.1" style="font-family: 'Times New Roman', Times, serif; font-size: 43px; fill: rgb(0, 0, 0); fill-opacity: 1; white-space: pre;" transform="translate(285.6,0)">5</text></g><g class="xtick"><text text-anchor="middle" x="0" y="932.1" style="font-family: 'Times New Roman', Times, serif; font-size: 43px; fill: rgb(0, 0, 0); fill-opacity: 1; white-space: pre;" transform="translate(439.2,0)">10</text></g><g class="xtick"><text text-anchor="middle" x="0" y="932.1" style="font-family: 'Times New Roman', Times, serif; font-size: 43px; fill: rgb(0, 0, 0); fill-opacity: 1; white-space: pre;" transform="translate(592.8,0)">15</text></g><g class="xtick"><text text-anchor="middle" x="0" y="932.1" style="font-family: 'Times New Roman', Times, serif; font-size: 43px; fill: rgb(0, 0, 0); fill-opacity: 1; white-space: pre;" transform="translate(746.4,0)">20</text></g><g class="xtick"><text text-anchor="middle" x="0" y="932.1" style="font-family: 'Times New Roman', Times, serif; font-size: 43px; fill: rgb(0, 0, 0); fill-opacity: 1; white-space: pre;" transform="translate(900,0)">25</text></g></g><g class="yaxislayer-above"><path class="ytick ticks crisp" d="M129.5,0h-8" transform="translate(0,870)" style="stroke: rgb(0, 0, 0); stroke-opacity: 1; stroke-width: 1.5px;"/><path class="ytick ticks crisp" d="M129.5,0h-8" transform="translate(0,742.19)" style="stroke: rgb(0, 0, 0); stroke-opacity: 1; stroke-width: 1.5px;"/><path class="ytick ticks crisp" d="M129.5,0h-8" transform="translate(0,614.38)" style="stroke: rgb(0, 0, 0); stroke-opacity: 1; stroke-width: 1.5px;"/><path class="ytick ticks crisp" d="M129.5,0h-8" transform="translate(0,486.57)" style="stroke: rgb(0, 0, 0); stroke-opacity: 1; stroke-width: 1.5px;"/><path class="ytick ticks crisp" d="M129.5,0h-8" transform="translate(0,358.76)" style="stroke: rgb(0, 0, 0); stroke-opacity: 1; stroke-width: 1.5px;"/><path class="ytick ticks crisp" d="M129.5,0h-8" transform="translate(0,230.95)" style="stroke: rgb(0, 0, 0); stroke-opacity: 1; stroke-width: 1.5px;"/><g class="ytick"><text text-anchor="end" x="112.9" y="15.049999999999999" transform="translate(0,870)" style="font-family: 'Times New Roman', Times, serif; font-size: 43px; fill: rgb(0, 0, 0); fill-opacity: 1; white-space: pre;">0</text></g><g class="ytick"><text text-anchor="end" x="112.9" y="15.049999999999999" style="font-family: 'Times New Roman', Times, serif; font-size: 43px; fill: rgb(0, 0, 0); fill-opacity: 1; white-space: pre;" transform="translate(0,742.19)">0.2</text></g><g class="ytick"><text text-anchor="end" x="112.9" y="15.049999999999999" style="font-family: 'Times New Roman', Times, serif; font-size: 43px; fill: rgb(0, 0, 0); fill-opacity: 1; white-space: pre;" transform="translate(0,614.38)">0.4</text></g><g class="ytick"><text text-anchor="end" x="112.9" y="15.049999999999999" style="font-family: 'Times New Roman', Times, serif; font-size: 43px; fill: rgb(0, 0, 0); fill-opacity: 1; white-space: pre;" transform="translate(0,486.57)">0.6</text></g><g class="ytick"><text text-anchor="end" x="112.9" y="15.049999999999999" style="font-family: 'Times New Roman', Times, serif; font-size: 43px; fill: rgb(0, 0, 0); fill-opacity: 1; white-space: pre;" transform="translate(0,358.76)">0.8</text></g><g class="ytick"><text text-anchor="end" x="112.9" y="15.049999999999999" style="font-family: 'Times New Roman', Times, serif; font-size: 43px; fill: rgb(0, 0, 0); fill-opacity: 1; white-space: pre;" transform="translate(0,230.95)">1</text></g></g><g class="overaxes-above"/></g></g><g class="polarlayer"/><g class="smithlayer"/><g class="ternarylayer"/><g class="geolayer"/><g class="funnelarealayer"/><g class="pielayer"/><g class="iciclelayer"/><g class="treemaplayer"/><g class="sunburstlayer"/><g class="glimages"/><defs id="topdefs-f93165"><g class="clips"/><clipPath id="legendf93165"><rect width="469" height="172" x="1" y="1"/></clipPath></defs><g class="layer-above"><g class="imagelayer"/><g class="shapelayer"/></g><g class="infolayer"><g class="legend" pointer-events="all" transform="translate(280.5,11.579999999999984)"><rect class="bg" shape-rendering="crispEdges" style="stroke: rgb(209, 213, 219); stroke-opacity: 1; fill: rgb(255, 255, 255); fill-opacity: 0.95; stroke-width: 1px;" width="470" height="173" x="0.5" y="0.5"/><g class="scrollbox" transform="" clip-path="url(#legendf93165)"><g class="groups"><g class="traces" transform="translate(1,32.85)" style="opacity: 1;"><text class="legendtext" text-anchor="start" x="40" y="15.21" style="font-family: 'Times New Roman', Times, serif; font-size: 39px; fill: rgb(0, 0, 0); fill-opacity: 1; white-space: pre;">Trained AE</text><g class="layers" style="opacity: 1;"><g class="legendfill"/><g class="legendlines"><path class="js-line" d="M5,0h30" style="fill: none; stroke: rgb(0, 12, 122); stroke-opacity: 1; stroke-width: 5px;"/></g><g class="legendsymbols"><g class="legendpoints"><path class="scatterpts" transform="translate(20,0)" d="M6,0A6,6 0 1,1 0,-6A6,6 0 0,1 6,0Z" style="opacity: 1; stroke-width: 2px; fill: rgb(0, 12, 122); fill-opacity: 1; stroke: rgb(255, 255, 255); stroke-opacity: 1;"/></g></g></g><rect class="legendtoggle" x="0" y="-26.85" width="221.984375" height="53.7" style="fill: rgb(0, 0, 0); fill-opacity: 0;"/></g><g class="traces" transform="translate(1,86.55000000000001)" style="opacity: 1;"><text class="legendtext" text-anchor="start" x="40" y="15.21" style="font-family: 'Times New Roman', Times, serif; font-size: 39px; fill: rgb(0, 0, 0); fill-opacity: 1; white-space: pre;">Trained AE w/ Unit Norms</text><g class="layers" style="opacity: 1;"><g class="legendfill"/><g class="legendlines"><path class="js-line" d="M5,0h30" style="fill: none; stroke: rgb(220, 38, 38); stroke-opacity: 1; stroke-width: 5px;"/></g><g class="legendsymbols"><g class="legendpoints"><path class="scatterpts" transform="translate(20,0)" d="M6,0A6,6 0 1,1 0,-6A6,6 0 0,1 6,0Z" style="opacity: 1; stroke-width: 2px; fill: rgb(220, 38, 38); fill-opacity: 1; stroke: rgb(255, 255, 255); stroke-opacity: 1;"/></g></g></g><rect class="legendtoggle" x="0" y="-26.85" width="465.734375" height="53.7" style="fill: rgb(0, 0, 0); fill-opacity: 0;"/></g><g class="traces" transform="translate(1,140.25)" style="opacity: 1;"><text class="legendtext" text-anchor="start" x="40" y="15.21" style="font-family: 'Times New Roman', Times, serif; font-size: 39px; fill: rgb(0, 0, 0); fill-opacity: 1; white-space: pre;">Constructed AE</text><g class="layers" style="opacity: 1;"><g class="legendfill"/><g class="legendlines"><path class="js-line" d="M5,0h30" style="fill: none; stroke: rgb(252, 186, 3); stroke-opacity: 1; stroke-width: 5px;"/></g><g class="legendsymbols"><g class="legendpoints"><path class="scatterpts" transform="translate(20,0)" d="M6,0A6,6 0 1,1 0,-6A6,6 0 0,1 6,0Z" style="opacity: 1; stroke-width: 2px; fill: rgb(252, 186, 3); fill-opacity: 1; stroke: rgb(255, 255, 255); stroke-opacity: 1;"/></g></g></g><rect class="legendtoggle" x="0" y="-26.85" width="290.5625" height="53.7" style="fill: rgb(0, 0, 0); fill-opacity: 0;"/></g></g></g><rect class="scrollbar" rx="20" ry="3" width="0" height="0" style="fill: rgb(128, 139, 164); fill-opacity: 1;" x="0" y="0"/></g><g class="g-gtitle"/><g class="g-xtitle" transform="translate(0,-3.7097656250000455)"><text class="xtitle" x="516" y="987.049609375" text-anchor="middle" style="opacity: 1; font-family: 'Times New Roman', Times, serif; font-size: 46px; fill: rgb(0, 0, 0); fill-opacity: 1; white-space: pre;"><tspan style="font-family:Times New Roman; font-style:italic;">L</tspan>​<tspan style="font-size:70%" dy="-0.6em">0</tspan><tspan dy="0.42em">​</tspan>​<tspan style="font-size:70%" dy="0.3em">SAE</tspan><tspan dy="-0.21em">​</tspan></text></g><g class="g-ytitle" transform="translate(11.69921875,0)"><text class="ytitle" transform="rotate(-90,29.300390625000006,534.5)" x="29.300390625000006" y="534.5" text-anchor="middle" style="opacity: 1; font-family: 'Times New Roman', Times, serif; font-size: 46px; fill: rgb(0, 0, 0); fill-opacity: 1; white-space: pre;">Encoder Precision</text></g></g></svg>